<?xml version="1.0" standalone="no"?>
<!DOCTYPE svg PUBLIC "-//W3C//DTD SVG 20010904//EN"
 "http://www.w3.org/TR/2001/REC-SVG-20010904/DTD/svg10.dtd">
<svg version="1.0" xmlns="http://www.w3.org/2000/svg"
 width="512.000000pt" height="512.000000pt" viewBox="0 0 512.000000 512.000000"
 preserveAspectRatio="xMidYMid meet">

<g transform="translate(0.000000,512.000000) scale(0.100000,-0.100000)"
fill="#000000" stroke="none">
<path d="M2425 4935 c-372 -53 -713 -180 -1013 -377 -158 -105 -233 -167 -387
-322 -183 -184 -321 -370 -419 -563 -27 -55 -47 -79 -88 -109 -261 -191 -433
-460 -494 -771 -24 -119 -24 -347 0 -466 61 -311 233 -580 494 -771 41 -30 61
-54 88 -109 98 -193 236 -379 419 -563 154 -155 229 -217 387 -322 315 -207
682 -339 1067 -383 157 -17 495 -7 651 21 399 70 774 240 1085 489 487 389
800 944 886 1571 8 53 14 185 14 300 0 216 -11 320 -51 510 -56 262 -192 584
-339 805 -370 554 -941 929 -1595 1045 -161 29 -548 37 -705 15z m505 -156
c930 -86 1708 -745 1950 -1651 95 -357 95 -779 0 -1136 -161 -601 -564 -1110
-1110 -1400 -1085 -577 -2437 -159 -3017 933 -56 105 -61 111 -139 166 -281
200 -444 518 -444 869 0 351 163 669 444 869 78 55 83 61 139 166 423 798
1286 1267 2177 1184z"/>
<path d="M2440 4604 c-365 -53 -717 -205 -1003 -433 -91 -72 -224 -197 -238
-222 -7 -14 3 -27 51 -69 l60 -52 88 85 c155 152 321 270 504 357 512 243
1085 250 1600 20 330 -148 629 -407 826 -715 155 -243 264 -567 287 -853 l7
-83 -93 3 -92 3 -71 212 c-39 116 -74 214 -77 217 -3 3 -40 -6 -81 -20 l-76
-25 64 -192 c35 -105 64 -193 64 -194 0 -2 -39 -3 -88 -3 l-87 0 -304 332
-304 331 71 144 c40 79 72 145 72 148 0 6 -141 77 -145 73 -1 -2 -29 -55 -60
-118 l-58 -115 -77 84 -78 84 -28 -21 c-16 -11 -44 -36 -62 -55 l-33 -34 225
-246 c124 -135 226 -247 226 -250 0 -2 -36 -34 -81 -72 l-81 -68 -129 129
-129 129 -57 -58 -58 -57 124 -124 123 -123 -76 -62 c-42 -34 -76 -65 -76 -68
0 -7 94 -122 101 -122 3 -1 106 83 229 186 l223 188 80 -85 c44 -47 109 -118
144 -157 l65 -73 -33 -37 c-43 -50 -391 -433 -393 -433 -1 0 -163 65 -360 144
l-359 143 -73 183 c-40 100 -76 185 -79 188 -7 8 -145 -48 -145 -59 0 -5 27
-77 61 -161 34 -84 63 -158 66 -165 3 -7 -46 -37 -126 -78 l-131 -65 35 -70
c19 -39 40 -70 45 -70 6 0 74 32 151 71 l141 70 317 -126 c174 -70 320 -131
325 -135 5 -5 -34 -55 -94 -120 l-102 -110 -224 0 -224 0 0 -80 0 -80 196 0
196 0 -5 -22 c-16 -69 -58 -290 -55 -292 2 -2 38 -10 80 -18 l77 -15 11 51 c5
28 23 115 39 194 19 97 35 150 48 165 11 12 109 120 218 240 l198 219 64 -65
65 -64 -66 -131 c-36 -73 -66 -135 -66 -140 0 -9 138 -78 144 -71 2 2 32 60
66 129 34 69 63 126 64 127 2 2 42 -11 91 -27 49 -16 89 -29 90 -27 1 1 14 37
28 79 l25 77 -114 38 c-114 37 -114 37 -195 119 l-82 82 119 131 119 131 269
0 268 0 -7 -82 c-68 -828 -690 -1527 -1511 -1698 -477 -98 -1002 1 -1407 266
-128 84 -190 134 -299 241 l-88 85 -60 -52 c-48 -42 -58 -55 -51 -69 14 -25
147 -150 238 -222 290 -231 641 -382 1013 -434 139 -19 409 -19 552 1 451 62
857 264 1182 590 312 311 515 712 583 1147 24 153 24 461 0 614 -117 750 -633
1375 -1352 1638 -117 43 -272 80 -413 99 -139 20 -429 19 -562 0z"/>
<path d="M1121 3709 c-56 -11 -120 -49 -161 -96 -19 -21 -62 -96 -96 -168
-270 -564 -270 -1206 0 -1771 35 -72 80 -149 100 -172 106 -117 286 -127 411
-25 32 27 104 112 153 181 l23 31 -60 40 c-32 22 -63 42 -68 43 -6 2 -37 -31
-70 -73 -103 -129 -147 -149 -230 -108 -43 22 -51 32 -99 129 -131 263 -194
535 -194 840 0 305 63 577 194 840 48 97 56 107 99 129 68 34 108 24 172 -42
151 -156 277 -409 332 -667 24 -114 24 -397 0 -519 -24 -118 -51 -206 -92
-296 -19 -42 -35 -79 -35 -83 0 -8 124 -72 139 -72 10 0 80 157 105 235 118
367 86 796 -84 1150 -80 166 -204 341 -292 412 -67 54 -162 78 -247 62z"/>
</g>
</svg>
