<?xml version="1.0" standalone="no"?>
<!DOCTYPE svg PUBLIC "-//W3C//DTD SVG 20010904//EN"
 "http://www.w3.org/TR/2001/REC-SVG-20010904/DTD/svg10.dtd">
<svg version="1.0" xmlns="http://www.w3.org/2000/svg"
 width="512.000000pt" height="512.000000pt" viewBox="0 0 512.000000 512.000000"
 preserveAspectRatio="xMidYMid meet">

<g transform="translate(0.000000,512.000000) scale(0.100000,-0.100000)"
fill="#000000" stroke="none">
<path d="M1525 5110 c-455 -69 -780 -441 -836 -956 -12 -115 -7 -219 17 -344
8 -41 14 -76 14 -76 0 -1 -19 -14 -42 -29 -155 -103 -284 -295 -319 -475 -10
-57 -18 -72 -64 -120 -307 -327 -382 -782 -191 -1170 102 -208 286 -388 491
-481 212 -96 476 -118 692 -59 40 11 77 20 81 20 4 0 27 -29 50 -64 84 -127
232 -240 383 -290 106 -35 217 -46 491 -46 226 0 237 -1 243 -20 13 -41 104
-167 156 -215 78 -72 151 -116 254 -150 l90 -31 85 -221 c47 -121 96 -238 110
-259 30 -46 105 -99 163 -115 95 -26 221 13 287 87 60 68 64 90 70 308 l5 198
55 17 c109 35 201 96 262 177 30 40 48 55 72 58 17 2 69 10 115 16 364 50 695
332 809 690 37 116 47 182 46 325 0 113 -4 157 -23 229 -49 189 -143 357 -272
487 l-69 69 10 44 c30 133 21 314 -22 456 -54 178 -187 370 -330 475 l-26 20
19 73 c119 462 -62 986 -424 1225 -329 218 -768 204 -1121 -36 -78 -53 -201
-171 -251 -241 -22 -30 -42 -56 -45 -56 -3 0 -23 26 -45 56 -50 70 -173 188
-251 241 -218 148 -503 219 -739 183z m290 -175 c259 -46 492 -217 645 -474
71 -120 129 -120 200 0 152 256 387 429 645 474 158 27 290 15 437 -42 447
-174 652 -769 438 -1271 -133 -312 -400 -610 -1070 -1196 l-144 -126 -406 0
-405 0 -190 166 c-824 721 -1067 1050 -1110 1499 -13 143 26 364 90 501 164
355 496 534 870 469z m-997 -1459 c143 -288 389 -565 915 -1033 78 -69 144
-129 145 -134 2 -5 -26 -9 -61 -9 -59 0 -68 -3 -86 -26 -29 -37 -27 -85 5
-115 l26 -24 798 0 798 0 26 24 c32 30 34 78 5 115 -18 23 -27 26 -86 26 -35
0 -63 4 -61 9 2 5 50 51 108 101 509 448 794 762 935 1033 17 31 33 57 36 57
16 0 142 -146 178 -207 153 -259 143 -561 -27 -827 -38 -60 -41 -104 -9 -133
66 -60 125 -25 196 116 l23 43 40 -38 c85 -84 161 -223 201 -369 30 -112 29
-306 -1 -420 -81 -301 -322 -541 -617 -614 -138 -34 -315 -32 -439 6 l-57 18
65 43 c115 75 195 206 216 353 11 77 3 108 -32 133 -68 48 -138 -11 -138 -119
0 -43 -51 -144 -96 -189 -22 -21 -68 -53 -104 -70 l-65 -31 -845 0 c-945 0
-899 -3 -1044 73 -73 38 -185 140 -218 198 l-17 31 67 46 c38 26 87 64 110 85
35 32 42 45 42 76 0 71 -72 109 -130 69 -14 -10 -48 -36 -77 -60 -64 -51 -216
-127 -303 -150 -92 -25 -339 -25 -429 0 -186 51 -353 162 -463 306 -217 288
-234 680 -41 981 l47 73 9 -29 c28 -95 63 -179 84 -205 45 -53 132 -33 149 35
3 15 -3 44 -19 78 -114 248 -74 500 108 684 39 41 77 74 82 74 5 0 28 -38 51
-84z m2795 -2500 c47 -25 125 -57 174 -71 137 -41 131 -37 85 -68 -92 -64
-110 -67 -465 -67 -347 0 -378 4 -484 55 -60 30 -158 116 -186 164 l-18 31
405 0 404 0 85 -44z m-33 -551 c0 -192 -5 -211 -61 -241 -36 -18 -72 -18 -109
1 -40 21 -39 18 -166 353 l-24 62 180 0 180 0 0 -175z"/>
<path d="M1314 4662 c-118 -86 -227 -259 -269 -427 -21 -83 -24 -269 -6 -360
27 -134 92 -289 159 -382 35 -46 77 -62 114 -42 62 33 63 79 3 179 -83 137
-117 260 -117 420 0 177 58 317 184 443 94 94 103 121 55 175 -29 31 -75 29
-123 -6z"/>
<path d="M2405 4166 c-40 -17 -82 -67 -95 -114 -5 -20 -10 -115 -10 -209 l0
-173 -185 0 c-206 0 -233 -6 -278 -59 -40 -48 -50 -94 -46 -223 4 -102 7 -118
29 -151 48 -70 73 -77 289 -77 l191 0 0 -171 c0 -229 12 -270 91 -318 30 -18
50 -21 169 -21 119 0 139 3 169 21 79 48 91 89 91 318 l0 171 191 0 c216 0
241 7 289 77 23 33 25 48 28 159 5 143 -10 192 -74 240 l-37 29 -199 3 -198 3
0 172 c0 95 -5 189 -10 209 -14 48 -55 97 -97 114 -44 19 -266 18 -308 0z
m245 -386 l0 -231 25 -24 24 -25 231 0 230 0 0 -85 0 -85 -220 0 c-230 0 -269
-6 -284 -45 -3 -9 -6 -118 -6 -241 l0 -224 -90 0 -90 0 0 224 c0 123 -3 232
-6 241 -15 39 -54 45 -284 45 l-220 0 0 85 0 85 230 0 231 0 24 25 25 24 0
231 0 230 90 0 90 0 0 -230z"/>
<path d="M714 2536 c-21 -18 -28 -32 -28 -61 0 -53 34 -80 111 -88 165 -17
293 -144 310 -308 8 -79 34 -113 88 -113 50 0 85 39 85 94 0 221 -185 442
-408 489 -84 18 -127 14 -158 -13z"/>
<path d="M2250 1851 c-38 -38 -40 -82 -5 -116 l24 -25 399 0 c424 0 460 -3
518 -49 15 -12 39 -38 52 -59 33 -50 50 -62 89 -62 46 0 83 37 83 83 0 47 -71
143 -136 185 -106 67 -96 66 -567 70 l-427 3 -30 -30z"/>
</g>
</svg>
