<?xml version="1.0" standalone="no"?>
<!DOCTYPE svg PUBLIC "-//W3C//DTD SVG 20010904//EN"
 "http://www.w3.org/TR/2001/REC-SVG-20010904/DTD/svg10.dtd">
<svg version="1.0" xmlns="http://www.w3.org/2000/svg"
 width="512.000000pt" height="512.000000pt" viewBox="0 0 512.000000 512.000000"
 preserveAspectRatio="xMidYMid meet">

<g transform="translate(0.000000,512.000000) scale(0.100000,-0.100000)"
fill="#000000" stroke="none">
<path d="M1424 5110 c-31 -12 -54 -49 -54 -88 0 -43 14 -68 49 -86 44 -23
1771 -669 2196 -821 253 -91 361 -152 494 -279 173 -167 269 -372 287 -616 8
-99 -8 -257 -37 -369 -11 -42 -208 -672 -439 -1401 -231 -729 -420 -1338 -420
-1353 0 -39 15 -64 50 -82 43 -22 76 -18 109 13 27 24 72 162 455 1372 234
740 434 1383 445 1430 11 47 25 123 31 170 55 447 -134 864 -503 1111 -123 82
-194 117 -382 184 -210 75 -1156 427 -1749 649 -258 97 -479 176 -490 175 -12
0 -31 -4 -42 -9z"/>
<path d="M191 4626 c-55 -30 -66 -99 -23 -146 24 -27 144 -68 1198 -410 697
-226 1187 -380 1209 -380 33 0 45 7 84 50 69 74 138 91 201 48 54 -37 74 -72
74 -128 0 -81 -56 -139 -140 -147 -63 -6 -92 -21 -110 -55 -19 -37 -18 -62 6
-108 11 -22 20 -58 20 -80 0 -176 -244 -204 -289 -33 -10 35 -8 51 9 102 20
56 20 63 6 93 -9 18 -24 38 -33 44 -10 6 -103 38 -208 72 -227 72 -1129 361
-1480 474 -137 44 -320 103 -405 131 -195 63 -239 69 -274 34 -47 -47 -46
-112 4 -149 14 -10 419 -144 900 -298 481 -155 965 -310 1075 -345 l200 -64 1
-70 c3 -174 140 -321 315 -337 204 -20 379 140 379 344 0 66 0 67 33 81 56 25
132 106 162 174 68 150 15 336 -121 426 -130 86 -306 79 -415 -17 l-35 -31
-385 125 c-211 69 -564 184 -784 256 -220 71 -558 181 -751 244 -193 63 -362
114 -375 114 -13 -1 -35 -7 -48 -14z"/>
<path d="M3532 3679 c-97 -48 -188 -161 -250 -311 -22 -52 -27 -79 -27 -155 0
-85 2 -94 30 -134 35 -50 96 -84 174 -99 87 -16 316 -13 383 6 124 35 188 133
175 268 -33 334 -263 536 -485 425z m192 -205 c58 -60 118 -256 88 -286 -16
-16 -271 -24 -323 -11 -30 8 -34 14 -37 44 -4 46 63 180 121 242 36 39 49 47
80 47 28 0 44 -8 71 -36z"/>
<path d="M64 3010 c-31 -12 -64 -59 -64 -89 0 -14 9 -40 19 -57 16 -27 35 -37
113 -63 271 -90 468 -113 1130 -136 237 -9 496 -22 575 -30 140 -15 291 -40
301 -49 2 -3 -14 -54 -36 -113 -80 -216 -129 -405 -159 -618 -24 -169 -22
-519 6 -780 46 -438 46 -636 0 -870 -12 -63 -19 -124 -15 -139 8 -31 59 -66
98 -66 14 0 40 11 56 25 25 21 34 41 51 113 53 229 58 475 17 887 -35 349 -41
512 -27 677 23 271 76 489 186 764 36 88 65 172 65 187 0 45 -42 82 -122 105
-228 68 -408 87 -990 107 -645 22 -810 41 -1059 121 -115 37 -114 37 -145 24z"/>
<path d="M3043 2852 c-95 -34 -155 -87 -200 -177 -27 -54 -35 -89 -34 -161 0
-93 33 -167 103 -237 l58 -59 -280 -1045 c-154 -574 -280 -1060 -280 -1078 0
-45 35 -84 82 -92 46 -7 83 14 103 60 18 41 595 2197 595 2223 -1 36 -28 67
-81 94 -71 35 -99 76 -99 146 0 58 27 102 81 129 79 41 186 -9 210 -98 25 -93
107 -114 184 -46 62 55 141 56 205 3 55 -47 64 -141 19 -198 -33 -42 -71 -56
-152 -56 -65 0 -77 -3 -99 -24 -20 -21 -68 -189 -307 -1079 -197 -739 -280
-1063 -275 -1081 8 -33 58 -76 89 -76 37 0 75 21 90 51 8 14 131 464 275 1000
143 536 263 982 266 992 4 11 15 17 34 17 62 0 143 41 207 105 51 52 64 72 82
129 26 85 26 136 1 219 -37 120 -149 216 -274 235 -56 9 -154 0 -184 -17 -12
-7 -27 3 -59 36 -88 90 -242 127 -360 85z"/>
<path d="M1169 2051 c-19 -20 -29 -40 -29 -60 0 -60 17 -77 154 -150 183 -98
200 -104 241 -91 63 21 86 101 44 154 -28 35 -308 176 -350 176 -20 0 -40 -10
-60 -29z"/>
<path d="M4826 1615 c-156 -35 -193 -52 -209 -99 -20 -60 26 -126 88 -126 39
0 294 54 338 72 64 25 78 108 28 159 -37 37 -54 36 -245 -6z"/>
<path d="M1195 1479 c-71 -3 -140 -7 -153 -8 -37 -2 -82 -53 -82 -94 0 -38 30
-84 64 -97 12 -4 99 -4 193 0 193 9 215 17 234 79 9 31 8 43 -6 70 -16 33 -68
63 -102 59 -10 -1 -76 -5 -148 -9z"/>
<path d="M4692 1095 c-73 -32 -74 -137 0 -176 35 -19 303 -99 330 -99 40 0 65
15 83 50 44 85 6 123 -186 183 -186 59 -188 59 -227 42z"/>
<path d="M1361 946 c-174 -113 -195 -142 -152 -212 24 -40 71 -60 108 -46 36
12 260 155 296 188 21 20 27 35 27 68 0 60 -36 96 -94 96 -34 -1 -64 -16 -185
-94z"/>
<path d="M4375 697 c-27 -27 -35 -43 -35 -71 0 -32 12 -49 93 -138 167 -185
159 -178 206 -178 56 0 101 42 101 93 0 42 -27 79 -157 215 -82 86 -104 104
-135 109 -33 5 -42 1 -73 -30z"/>
</g>
</svg>
